<?xml version="1.0" encoding="utf-8"?>
<!-- Generator: Adobe Illustrator 16.0.0, SVG Export Plug-In . SVG Version: 6.00 Build 0)  -->
<!DOCTYPE svg PUBLIC "-//W3C//DTD SVG 1.1//EN" "http://www.w3.org/Graphics/SVG/1.1/DTD/svg11.dtd">
<svg version="1.1" id="Layer_1" xmlns:sketch="http://www.bohemiancoding.com/sketch/ns"
	 xmlns="http://www.w3.org/2000/svg" xmlns:xlink="http://www.w3.org/1999/xlink" x="0px" y="0px" width="128px" height="28px"
	 viewBox="0 0 128 28" enable-background="new 0 0 128 28" xml:space="preserve">
<g id="Artboard-1" sketch:type="MSArtboardGroup">
	<g id="Group" transform="translate(0.000000, 1.000000)" sketch:type="MSLayerGroup">
		<g id="Shape" transform="translate(31.000000, 7.000000)" sketch:type="MSShapeGroup">
			<path fill="#1B181C" d="M1.6,7.3c0,1.3,1.1,1.8,2.2,1.8c0.8,0,1.4-0.1,2-0.3L6,10c-0.6,0.2-1.5,0.5-2.5,0.5
				c-2.3,0-3.6-1.4-3.6-3.6c0-2,1.2-3.8,3.5-3.8c2.3,0,3.1,1.9,3.1,3.4v0.8H1.6L1.6,7.3z M4.7,6c0-0.7-0.3-1.7-1.5-1.7
				c-1.1,0-1.6,1-1.6,1.7H4.7L4.7,6z"/>
			<path fill="#1B181C" d="M7.1-0.1h1.8v10.4H7.1V-0.1L7.1-0.1z"/>
			<path fill="#1B181C" d="M11.4,7.3c0,1.3,1.1,1.8,2.2,1.8c0.8,0,1.4-0.1,2-0.3l0.2,1.2c-0.6,0.2-1.5,0.5-2.5,0.5
				c-2.3,0-3.6-1.4-3.6-3.6c0-2,1.2-3.8,3.5-3.8c2.3,0,3.1,1.9,3.1,3.4v0.8H11.4L11.4,7.3z M14.5,6c0-0.7-0.3-1.7-1.5-1.7
				c-1.1,0-1.6,1-1.6,1.7H14.5L14.5,6z"/>
			<path fill="#1B181C" d="M16.9,5.5V3.2h1.6v1.4c0.4-1,1.2-1.5,1.9-1.5h0.4v1.7h-0.5c-0.9,0-1.4,0.6-1.6,1.4v0.6v3.7h-1.8V5.5
				L16.9,5.5z"/>
			<path fill="#1B181C" d="M27.7,9.3c0,1.5-0.3,2.5-1.1,3.2c-0.7,0.7-1.8,0.9-2.7,0.9S22,13.2,21.4,12.8l0.4-1.399
				c0.5,0.199,1.2,0.5,2.1,0.5c1.2,0,2-0.601,2-2.101V9.2c-0.4,0.6-1.1,1.1-2.1,1.1c-1.8,0-3-1.5-3-3.5C20.8,4.5,22.3,3,24,3
				c1.1,0,1.7,0.5,2,1.1l0,0l0.1-0.9h1.6v2V9.3L27.7,9.3z M25.9,6V5.5c-0.2-0.7-0.7-1.1-1.5-1.1c-1,0-1.8,0.9-1.8,2.3
				c0,1.2,0.6,2.2,1.7,2.2c0.7,0,1.3-0.5,1.5-1.101c0-0.2,0.1-0.5,0.1-0.7C25.9,7.2,25.9,6,25.9,6L25.9,6z"/>
			<path fill="#1B181C" d="M36.1,6.7c0,2.6-1.899,3.8-3.899,3.8c-2.1,0-3.8-1.4-3.8-3.7s1.5-3.8,4-3.8C34.6,3,36.1,4.5,36.1,6.7
				L36.1,6.7z M31.1,6.7c0,1.1,0.4,1.899,1.2,1.899C33,8.6,33.4,7.9,33.4,6.7c0-1-0.3-1.9-1.1-1.9C31.4,4.8,31.1,5.8,31.1,6.7
				L31.1,6.7z"/>
			<path fill="#1B181C" d="M36.6,5.5V3H38.9L39,4c0.2-0.4,0.9-1.1,2.1-1.1C42.8,2.9,43.7,4,43.7,6v4.2H41.1V6.3
				C41.1,5.5,40.8,5,40.2,5c-0.5,0-0.7,0.4-0.9,0.6c0,0.1-0.1,0.3-0.1,0.5v4.1H36.6C36.6,10.3,36.6,5.5,36.6,5.5L36.6,5.5z"/>
			<path fill="#1B181C" d="M46.8,7.6C46.9,8.2,47.7,8.5,48.6,8.5c0.7,0,1.301-0.1,2-0.3L51,10c-0.9,0.4-1.8,0.5-2.7,0.5
				c-2.5,0-4-1.4-4-3.7C44.3,5.1,45.4,3,48,3c2.3,0,3.3,1.7,3.3,3.7c0,0.5,0,0.8-0.1,1h-4.4V7.6z M48.9,5.8c0-0.4-0.2-1.2-1-1.2
				C47.1,4.6,46.8,5.3,46.8,5.8H48.9L48.9,5.8z"/>
			<path fill="#1B181C" d="M54.4,6.7C54.4,9,55.6,9.8,57.1,9.8c1,0,1.601-0.2,1.9-0.399l0.2,0.6c-0.2,0.2-1,0.5-2.2,0.5
				c-2,0-3.3-1.5-3.3-3.5c0-2.3,1.399-3.8,3.2-3.8c2.3,0,2.699,2.2,2.699,3.2v0.4L54.4,6.7L54.4,6.7z M58.9,6.2
				c0-1-0.4-2.5-2.101-2.5c-1.6,0-2.2,1.4-2.3,2.5H58.9L58.9,6.2z"/>
			<path fill="#1B181C" d="M60.7,5V3.3h0.7v1.3C61.8,3.8,62.7,3.2,63.8,3.2c0.7,0,2.5,0.3,2.5,3v4.2h-0.7V6.3
				c0-1.3-0.5-2.4-1.899-2.4c-1,0-1.8,0.7-2.101,1.6c0,0.2-0.1,0.4-0.1,0.6v4.3h-0.7L60.7,5L60.7,5z"/>
			<path fill="#1B181C" d="M67.9,6.7C67.9,9,69.1,9.8,70.6,9.8c1,0,1.601-0.2,1.9-0.399l0.2,0.6c-0.2,0.2-1,0.5-2.2,0.5
				c-2,0-3.3-1.5-3.3-3.5c0-2.3,1.399-3.8,3.2-3.8c2.3,0,2.699,2.2,2.699,3.2v0.4L67.9,6.7L67.9,6.7z M72.3,6.2
				c0-1-0.399-2.5-2.1-2.5c-1.601,0-2.2,1.4-2.3,2.5H72.3L72.3,6.2z"/>
			<path fill="#1B181C" d="M74.1,5.4V3.3h0.7v1.4c0.3-0.9,1-1.6,2-1.6h0.3v0.7h-0.3c-1,0-1.6,0.8-1.8,2v0.7v3.9h-0.7L74.1,5.4
				L74.1,5.4z"/>
			<path fill="#1B181C" d="M83.2,9.3c0,1.8-0.4,2.7-0.9,3.2c-0.7,0.6-1.6,0.8-2.399,0.8c-0.801,0-1.7-0.2-2.2-0.6l0.2-0.601
				C78.4,12.4,79.1,12.7,80,12.7c1.5,0,2.5-0.8,2.5-2.9v-1c-0.4,0.7-1.2,1.4-2.5,1.4c-1.8,0-3-1.5-3-3.4c0-2.5,1.6-3.7,3.2-3.7
				c1.399,0,2.1,0.8,2.399,1.4l0,0V3.3h0.7v1.8L83.2,9.3L83.2,9.3z M82.5,6c0-0.2,0-0.5-0.1-0.7c-0.301-0.9-1-1.6-2.2-1.6
				c-1.5,0-2.5,1.2-2.5,3.1c0,1.601,0.8,3,2.5,3c0.899,0,1.8-0.6,2.2-1.6c0.1-0.2,0.1-0.5,0.1-0.7V6L82.5,6z"/>
			<path fill="#1B181C" d="M85.6,1.3c0,0.3-0.199,0.6-0.6,0.6c-0.3,0-0.5-0.3-0.5-0.6c0-0.3,0.2-0.6,0.6-0.6
				C85.5,0.7,85.6,1,85.6,1.3L85.6,1.3z M84.7,10.3v-7h0.7v7H84.7L84.7,10.3z"/>
			<path fill="#1B181C" d="M91.4,8.7c0,0.6,0,1.1,0.1,1.7h-0.6l-0.101-1c-0.3,0.5-1.1,1.199-2.3,1.199c-1.4,0-2-1-2-1.899
				c0-1.601,1.4-2.6,4.3-2.6V5.9c0-0.7-0.1-2.1-1.8-2.1c-0.6,0-1.3,0.2-1.8,0.5L87,3.8c0.6-0.4,1.4-0.6,2-0.6c2,0,2.4,1.5,2.4,2.8
				V8.7L91.4,8.7z M90.7,6.6c-1.5,0-3.601,0.2-3.601,1.9c0,1,0.7,1.5,1.4,1.5c1.2,0,1.8-0.7,2.1-1.4C90.6,8.4,90.7,8.3,90.7,8.2V6.6
				L90.7,6.6z"/>
			<path fill="#1B181C" d="M92.6,9.4C93,9.6,93.5,9.9,94.2,9.9c1.1,0,1.6-0.601,1.6-1.301c0-0.8-0.5-1.199-1.5-1.6
				c-1.1-0.5-1.8-1.1-1.8-1.9c0-1,0.8-1.9,2.2-1.9c0.7,0,1.2,0.2,1.6,0.5L96,4.3c-0.2-0.2-0.7-0.4-1.4-0.4
				C93.7,3.9,93.2,4.5,93.2,5.1c0,0.7,0.5,1.1,1.399,1.4C95.7,7,96.4,7.5,96.4,8.6c0,1.2-0.9,2-2.4,2c-0.7,0-1.3-0.199-1.8-0.5
				L92.6,9.4L92.6,9.4z"/>
		</g>
		<g>
			<path fill="#0264A0" d="M13.7,16.7c1,0,2-0.4,2.7-1.101c1.5-1.5,1.5-4,0-5.5s-4-1.5-5.5,0c-0.7,0.7-1.1,1.7-1.1,2.7
				C9.6,14,9.1,15.1,8.2,16c-0.9,0.9-2,1.4-3.2,1.6C4,17.7,3,18,2.4,18.8c-1.5,1.5-1.5,4,0,5.5s4,1.5,5.5,0C8.6,23.6,9,22.6,9,21.6
				c0.2-1.199,0.7-2.3,1.6-3.199C11.5,17.5,12.6,16.9,13.7,16.7z"/>
			<path fill="#0099CC" d="M7.1,15.1c0.7-0.699,1.1-1.7,1.1-2.7c0.2-1.1,0.7-2.3,1.6-3.2c0.9-0.9,2-1.4,3.2-1.6c1,0,1.9-0.4,2.7-1.1
				c1.5-1.5,1.5-4,0-5.5s-4-1.5-5.5,0C9.5,1.7,9.1,2.7,9.1,3.7C8.9,4.9,8.4,6,7.5,6.9s-2,1.4-3.2,1.6c-1,0-2,0.4-2.7,1.1
				c-1.5,1.5-1.5,4,0,5.5S5.6,16.6,7.1,15.1z"/>
			<path fill="#353795" d="M25.7,10.9c-1.5-1.5-4-1.5-5.5,0c-0.7,0.7-1.1,1.7-1.1,2.7c-0.2,1.2-0.7,2.301-1.6,3.2
				c-0.9,0.9-2,1.4-3.2,1.601c-1,0-2,0.399-2.7,1.1c-1.5,1.5-1.5,4,0,5.5s4,1.5,5.5,0c0.7-0.7,1.1-1.7,1.1-2.7
				c0.2-1.2,0.7-2.3,1.6-3.2c0.9-0.899,2-1.399,3.2-1.6c1,0,2-0.4,2.7-1.1C27.2,14.9,27.2,12.4,25.7,10.9z"/>
		</g>
	</g>
</g>
</svg>
